<?xml version="1.0" encoding="utf-8"?>
<!-- Generator: Adobe Illustrator 16.0.0, SVG Export Plug-In . SVG Version: 6.00 Build 0)  -->
<!DOCTYPE svg PUBLIC "-//W3C//DTD SVG 1.1//EN" "http://www.w3.org/Graphics/SVG/1.1/DTD/svg11.dtd">
<svg version="1.1" id="图层_1" xmlns="http://www.w3.org/2000/svg" xmlns:xlink="http://www.w3.org/1999/xlink" x="0px" y="0px"
	 width="649.219px" height="714.175px" viewBox="0 0 649.219 714.175" enable-background="new 0 0 649.219 714.175"
	 xml:space="preserve">
<g>
	<defs>
		<rect id="SVGID_1_" width="649.219" height="714.175"/>
	</defs>
	<clipPath id="SVGID_2_">
		<use xlink:href="#SVGID_1_"  overflow="visible"/>
	</clipPath>
	<path clip-path="url(#SVGID_2_)" fill="#F3A302" d="M324.609,97.386c-170.313,0-308.379,138.075-308.379,308.396
		c0,170.319,138.067,308.394,308.379,308.394s308.379-138.074,308.379-308.394C632.988,235.461,494.922,97.386,324.609,97.386
		 M630.945,209.386c11.617-20.465,18.273-44.148,18.273-69.39C649.219,62.671,586.941,0,510.098,0
		c-44.793,0-84.629,21.304-110.063,54.382c95.555,19.86,177.676,76.7,230.938,155.004H630.945z M249.207,54.382
		C223.773,21.304,183.914,0,139.121,0C62.277,0,0,62.671,0,139.996c0,25.242,6.652,48.945,18.273,69.39
		C71.531,131.082,153.633,74.242,249.207,54.382 M275.688,227.234l65.152,0.043v227.227l-65.152-0.024V227.234z M340.84,389.586
		h129.844v64.918H340.84V389.586z"/>
</g>
</svg>
