<?xml version="1.0" encoding="utf-8"?>
<!-- Generator: Adobe Illustrator 16.0.0, SVG Export Plug-In . SVG Version: 6.00 Build 0)  -->
<!DOCTYPE svg PUBLIC "-//W3C//DTD SVG 1.1//EN" "http://www.w3.org/Graphics/SVG/1.1/DTD/svg11.dtd">
<svg version="1.1" id="图层_1" xmlns="http://www.w3.org/2000/svg" xmlns:xlink="http://www.w3.org/1999/xlink" x="0px" y="0px"
	 width="576.212px" height="819.199px" viewBox="0 0 576.212 819.199" enable-background="new 0 0 576.212 819.199"
	 xml:space="preserve">
<g>
	<defs>
		<rect id="SVGID_1_" width="576.212" height="819.199"/>
	</defs>
	<clipPath id="SVGID_2_">
		<use xlink:href="#SVGID_1_"  overflow="visible"/>
	</clipPath>
	<path clip-path="url(#SVGID_2_)" fill="#02B03B" d="M167.69,408.891l4.981-14.2l44.758-127.382
		c10.523-29.942,38.933-50.059,70.691-50.059c31.75,0,60.164,20.117,70.711,50.098l44.707,127.308l5.012,14.235l23.813,0.48
		l28.832,0.563V28.781c0-7.609-3.039-14.949-8.441-20.375C447.339,3.008,440.015,0,432.386,0H143.862
		c-15.91,0-28.816,12.871-28.816,28.781v381.16l28.816-0.558L167.69,408.891z"/>
	<path clip-path="url(#SVGID_2_)" fill="#02B03B" d="M559.253,469.59l-98.059-1.987l-28.832-0.56l-28.828-0.621l-24.613-0.473
		l-11.527-0.242l-6.094-17.363l-56.871-161.917c-2.434-6.887-8.969-11.547-16.316-11.547c-7.336,0-13.891,4.66-16.336,11.547
		l-56.839,161.917l-6.114,17.363l-11.547,0.242l-24.613,0.473l-28.809,0.621l-28.812,0.56l-98.086,1.987
		c-7.391,0.156-13.859,4.961-16.121,11.98c-2.262,7.035,0.172,14.696,6.094,19.129l152.769,114.637l-55.523,181.52
		c-2.137,7.047,0.398,14.648,6.336,19.012c1.496,1.102,3.129,1.906,4.847,2.457c0.551,0.196,1.133,0.176,1.711,0.332
		c1.168,0.219,2.328,0.512,3.528,0.524c0.05,0,0.101,0.019,0.129,0.019c1.101,0,2.164-0.25,3.265-0.484
		c0.578-0.109,1.184-0.059,1.75-0.254c1.68-0.52,3.297-1.266,4.793-2.301l157.578-108.527l157.59,108.527
		c2.953,2.035,6.371,3.039,9.797,3.039c3.582,0,7.172-1.094,10.229-3.34c5.942-4.355,8.461-11.988,6.325-19.004l-55.555-181.52
		l152.815-114.637c5.884-4.433,8.321-12.101,6.067-19.129C573.112,474.551,566.65,469.746,559.253,469.59"/>
</g>
</svg>
