<?xml version="1.0" encoding="utf-8"?>
<!-- Generator: Adobe Illustrator 16.0.0, SVG Export Plug-In . SVG Version: 6.00 Build 0)  -->
<!DOCTYPE svg PUBLIC "-//W3C//DTD SVG 1.1//EN" "http://www.w3.org/Graphics/SVG/1.1/DTD/svg11.dtd">
<svg version="1.1" id="商城_公告_1_" xmlns="http://www.w3.org/2000/svg" xmlns:xlink="http://www.w3.org/1999/xlink" x="0px"
	 y="0px" width="300px" height="300px" viewBox="0 0 300 300" enable-background="new 0 0 300 300" xml:space="preserve">
<g id="商城_公告">
	<g>
		<path fill-rule="evenodd" clip-rule="evenodd" fill="#EC0102" d="M70.753,57.819H48.014L35.522,79.885h23.263L70.753,57.819z
			 M110.398,118.632l-0.075-31.491H40.534v48.546l47.125,0.149L110.398,118.632z M63.049,102.699h24.684v17.504H63.049V102.699z
			 M102.544,57.819H79.729l11.968,22.065h23.263L102.544,57.819z M123.563,141.146l16.082-18.476l-0.075-84.075h-19l4.563-9.799
			h-24.086l-4.563,9.799H55.419l-4.563-10.323H26.846l4.563,10.323H10.988v104.347l22.515-9.799V53.854h83.478v70.612h-5.61
			l0.075,16.755L123.563,141.146z M145.18,8.975H88.556c-1.795-2.394-3.74-4.201-5.834-5.424C80.627,2.33,77.66,1.731,73.82,1.756
			c-3.84,0.026-7.929,2.432-12.267,7.219H8.146v15.559h130.751L145.18,8.975z M207.189,124.467h-14.885V36.202h6.283l7.48-17.354
			h-13.764V2.093H171.36v16.755h-10.995v17.354h10.995v88.265h-11.22v17.578h38.971L207.189,124.467z M291.789,14.061L289.62,0.821
			h-16.681l2.244,13.239H291.789z M227.162,58.043h4.563v59.467h-2.992v16.008h8.229l13.613-16.008V42.036h-23.412V32.91h26.105
			l5.311,63.132l-5.236,17.13h6.807l1.945,27.152h28.05l7.331-16.082h-16.83l-2.021-28.274l19.599-54.455l-19.225-0.075
			l-4.413,15.185l-1.72-23.712h16.755l6.807-16.007h-25.058l-1.571-14.96h-20.421l1.945,14.96h-43.758v126.487l19.598-7.555V58.043z
			 M81.151,157.753l37.475,69.714h26.778l-37.475-69.714H81.151z M104.414,242.128l9.051,33.211l-72.407,0.075l51.089-64.628H62.825
			l-50.416,66.348l0.075,15.783l93.8,0.149l7.779-15.633l4.862,17.877h23.263l-14.511-53.183H104.414z M69.183,157.753H41.432
			L3.957,227.467h27.751L69.183,157.753z M166.648,294.488h98.886l25.208-19.673v-40.767H166.648V294.488z M191.706,250.355h73.828
			v27.751h-73.828V250.355z M161.113,209.664v16.905h128.582l8.602-16.905h-56.549V185.13h45.853l7.106-16.606h-52.959v-10.995
			h-25.283v10.995h-17.652l4.637-11.444h-26.03l-17.429,41.889h26.779l5.46-13.838h24.235v24.534H161.113z"/>
	</g>
</g>
</svg>
