<?xml version="1.0" encoding="utf-8"?>
<!-- Generator: Adobe Illustrator 16.0.0, SVG Export Plug-In . SVG Version: 6.00 Build 0)  -->
<!DOCTYPE svg PUBLIC "-//W3C//DTD SVG 1.1//EN" "http://www.w3.org/Graphics/SVG/1.1/DTD/svg11.dtd">
<svg version="1.1" id="图层_1" xmlns="http://www.w3.org/2000/svg" xmlns:xlink="http://www.w3.org/1999/xlink" x="0px" y="0px"
	 width="819.199px" height="819.199px" viewBox="0 0 819.199 819.199" enable-background="new 0 0 819.199 819.199"
	 xml:space="preserve">
<g>
	<defs>
		<rect id="SVGID_1_" width="819.199" height="819.199"/>
	</defs>
	<clipPath id="SVGID_2_">
		<use xlink:href="#SVGID_1_"  overflow="visible"/>
	</clipPath>
	<path clip-path="url(#SVGID_2_)" fill="#EA5B4B" d="M409.602,0C183.398,0,0,183.398,0,409.602
		c0,226.199,183.398,409.597,409.602,409.597c226.199,0,409.598-183.398,409.598-409.597C819.199,183.398,635.801,0,409.602,0
		 M409.602,780.801c-205.02,0-371.204-166.195-371.204-371.199c0-205.008,166.184-371.204,371.204-371.204
		c205.016,0,371.199,166.196,371.199,371.204C780.801,614.605,614.617,780.801,409.602,780.801"/>
	<path clip-path="url(#SVGID_2_)" fill="#EA5B4B" d="M637.105,282.895c10,9.996,10.125,26.085,0.258,35.941L419.637,536.574
		c-9.859,9.871-25.946,9.754-35.957-0.254c-9.996-9.996-10.125-26.097-0.27-35.957l217.73-217.738
		C611.008,272.77,627.109,272.883,637.105,282.895"/>
	<path clip-path="url(#SVGID_2_)" fill="#EA5B4B" d="M420.559,536.31c-9.984,9.996-26.075,10.125-35.946,0.253L166.887,318.836
		c-9.867-9.856-9.766-25.945,0.269-35.957c9.985-9.996,26.098-10.109,35.953-0.254L420.84,500.353
		C430.68,510.224,430.594,526.31,420.559,536.31"/>
</g>
</svg>
